PathFileType	4	(X/Y/Z)	Patient4_TMGait_0pt3_02_left_12.trc.trc
DataRate	CameraRate	NumFrames	NumMarkers	Units	OrigDataRate	OrigDataStartFrame	OrigNumFrames
51.851851851852	51.851851851852	5	33	mm	51.851851851852	71	       141
Frame#	Time	Sacral			L.Shoulder			Chest			R.Shoulder			Neck			R.ASIS			L.ASIS			R.Thigh.Superior			R.Thigh.Lateral			R.Thigh.Inferior			R.Patella			L.Thigh.Superior			L.Thigh.Lateral			L.Thigh.Inferior			L.Patella			L.Shank.Superior			L.Shank.Lateral			L.Shank.Inferior			R.Shank.Superior			R.Shank.Lateral			R.Shank.Inferior			R.Heel			R.Midfoot.Superior			R.Midfoot.Lateral			R.Toe			L.Heel			L.Midfoot.Lateral			L.Midfoot.Superior			L.Toe			L.Elbow			L.Wrist			R.Elbow			R.Wrist			
		X1	Y1	Z1	X2	Y2	Z2	X3	Y3	Z3	X4	Y4	Z4	X5	Y5	Z5	X6	Y6	Z6	X7	Y7	Z7	X8	Y8	Z8	X9	Y9	Z9	X10	Y10	Z10	X11	Y11	Z11	X12	Y12	Z12	X13	Y13	Z13	X14	Y14	Z14	X15	Y15	Z15	X16	Y16	Z16	X17	Y17	Z17	X18	Y18	Z18	X19	Y19	Z19	X20	Y20	Z20	X21	Y21	Z21	X22	Y22	Z22	X23	Y23	Z23	X24	Y24	Z24	X25	Y25	Z25	X26	Y26	Z26	X27	Y27	Z27	X28	Y28	Z28	X29	Y29	Z29	X30	Y30	Z30	X31	Y31	Z31	X32	Y32	Z32	X33	Y33	Z33	

71	24.690000000000	716.390283048328	1000.294953105386	375.594345905270	934.628624117605	1445.789941921528	267.071672346664	987.229695821422	1362.604971068058	443.722446798249	855.562375995826	1420.780550846890	591.799119050681	878.673694260095	1493.061559118262	420.832351423326	923.610319603165	944.057440417660	535.781739146387	959.055696183550	962.466809990730	264.104612261954	1005.577031060599	768.450881634777	509.692988718523	956.312408900821	650.025248332551	583.722110570158	1045.477153128687	606.116079231176	508.018363443531	1071.682556964364	509.794437239552	535.105778402742	978.813121594152	732.191943046684	308.975535191684	886.814730039494	617.766672698811	244.787569577825	948.324451790217	538.500745825101	326.999300112846	939.305049300773	468.121603539074	340.291732170372	898.980323107466	398.591991337044	331.689192861064	800.518381691237	296.220020298272	273.182899645573	818.256878602066	184.796020595726	357.537477245523	1023.847478242046	424.799245490313	550.297732965679	929.864329977616	342.879998422703	615.399358390358	966.758466309370	234.583082029564	574.592448130840	817.280812801971	78.476818939217	552.131894700850	989.880971546953	118.533073116042	597.707132728236	895.942655503998	63.725917076496	630.895673104775	1101.852808606520	61.069666353619	633.778713411958	665.223592541549	41.066915401504	387.835698499698	746.704664294347	36.243364185358	315.298073675883	829.251973711898	95.498511146812	349.819512664763	958.098272983108	39.648798897945	333.594807920043	1053.949210501885	1137.901766152133	111.315466733797	1302.829681954699	1119.579011091241	173.882453535126	672.109200747952	1119.695300422966	653.387339521321	629.383045593009	864.716951516263	683.867204056789	
72	24.709285714286	715.180455833236	999.974818881608	376.471262850109	935.437882546917	1445.187808977998	270.638281468105	985.828969151206	1361.878263955717	447.860739299621	852.653697829602	1420.575222705602	594.474574962292	877.991640720558	1492.602125259864	423.765955806961	920.541572824561	943.280849490103	538.990655090647	958.787211906870	961.992538502442	267.508446745481	1001.636591214400	767.068940384473	514.374074119176	950.685747993364	648.623956187182	587.441786253040	1040.793319203972	604.883840805459	512.882816668253	1067.285932775616	510.475989208538	538.909414485572	975.042087215435	731.141252331293	311.607113812340	881.765945384827	618.303229350342	245.375846540062	940.973492166810	537.876461798772	327.643595254440	930.723606481340	467.974692277069	340.594994964728	891.240951957679	398.771259140026	331.692769728438	793.431075982328	295.876571236427	272.933194208993	811.554745029732	184.649437027662	357.573324562122	1023.226074077530	424.557143873848	553.668365260664	933.593795658163	338.030423336527	619.486726218330	975.242742260148	231.508624236579	577.928254195805	832.722061255164	68.556581821369	556.251949900237	1003.971122776462	115.843742105314	600.148804393914	912.879296820552	56.783821628355	634.209802378336	1119.155581857948	63.364528084641	635.123424358488	659.228490700561	40.369572096125	387.784981741886	740.700511295586	35.865329183599	315.162458441324	823.135817129220	95.348033879263	349.836850328588	952.175009244417	39.791462075328	333.728704110515	1057.628230779850	1139.481205394772	114.156564564866	1306.178847274781	1134.561403685826	178.988122374237	665.918944881358	1121.233234151853	650.915779614569	619.279772723874	866.562208071035	679.359532748301	
73	24.728571428571	714.102650503334	999.162632628191	377.771249395482	936.162536793921	1444.096093746799	274.389467782211	984.619379087806	1360.705898065233	452.124614697299	850.179728089904	1419.908592095533	597.473560267731	877.467745084165	1491.718389068037	426.970734869771	917.659603725927	941.976892290521	542.404622279138	958.557282453460	961.114632843320	271.103609425486	997.868720656166	765.128423576610	519.373589201978	945.062042611325	646.606141436904	591.164948143513	1036.328029442586	603.132006139842	517.931341245491	1062.720681371742	510.379495103813	542.777986980348	971.751183333093	729.988169655587	314.415281951063	877.427649946454	618.583275204339	246.230521384256	934.531248293593	537.116678047804	328.513301675551	923.152658651880	467.595744336803	341.104463326793	884.321699234773	398.693100574884	331.918100062671	786.910685788803	295.539295396125	272.836609922444	805.153020481682	184.411107418774	357.651887214637	1022.014336376665	423.706849131628	556.948792428226	936.150386190543	333.338725220995	623.103377631873	981.843973204864	228.557996663205	580.791222764293	845.441625409929	60.410221920336	559.385901032062	1015.306224058679	113.368309359182	602.142408383293	926.593581798075	50.994492510564	636.719027771224	1132.825153644368	64.875013316212	636.152657196871	653.264828849934	39.794745279783	387.739293970939	734.730643205672	35.540281464299	315.042196449050	817.071676890462	95.201678099127	349.862758262391	946.272474173694	39.897611517818	333.854036476041	1060.870049238995	1140.258779243255	117.362351916873	1308.559825037379	1147.530437838767	184.013344573630	661.687579706028	1121.302710792460	649.098594495758	612.894045179756	866.628175047625	675.065239975356	
74	24.747857142857	713.200441159075	997.985028848562	379.503948222844	936.806339884067	1442.654957915767	278.349770559936	983.613117132410	1359.226515321451	456.538768155167	848.127009886978	1418.898774987389	600.820327187413	877.089563954410	1490.522425917279	430.476082501622	915.050018891242	940.278978802977	546.012949223436	958.413805604918	959.962362195505	274.886372019734	994.413084508124	762.794215194103	524.526165712263	939.651856163832	644.123970619309	594.732752471824	1032.221581712142	601.007641598841	522.947462105225	1058.160469440162	509.604757660372	546.528871633492	969.003584889274	728.767138816804	317.348297872736	873.782472099744	618.650119862961	247.389532184277	929.028081071925	536.247834328278	329.617107753430	916.632303844482	467.009860298656	341.840576176783	878.231748503653	398.392540056366	332.386083889807	780.948148497042	295.257280823029	272.919917391508	799.060129817873	184.110557127100	357.778250657593	1020.308130184934	422.311594897074	560.013847073456	937.511158290924	328.873199019200	626.148755155831	986.465462175516	225.699851075162	583.088311906564	855.086812947087	53.984568268878	561.499186363553	1023.713176690877	111.048929951256	603.642081276879	936.785874596955	46.314848221586	638.425160999727	1142.752634019427	65.459342692723	636.876898515560	647.337275657139	39.361957740359	387.697243839298	728.800618861431	35.279718475903	314.945207292486	811.068143708779	95.069835270373	349.893466588871	940.392874421294	39.960728185512	333.963113435577	1063.593546081084	1140.319242733710	120.940684858417	1310.076089578053	1158.397945750643	188.948939475996	659.265543390994	1120.065518595556	648.044608945441	610.088519491451	865.064692391964	671.246637447759	
75	24.767142857143	712.503333830461	996.589931236116	381.669678815611	937.386061991622	1441.005743315159	282.531658314605	982.822096847250	1357.581277283697	461.118296355426	846.480843112313	1417.678675529851	604.520181398465	876.848837307023	1489.134463990989	434.292690998498	912.787461625603	938.333795136121	549.808892866474	958.392180588103	958.661699326813	278.855594318405	991.395828501407	760.241237338585	529.667471363862	934.657943913845	641.356528792220	598.031722752674	1028.588893586041	598.665189963040	527.744158709367	1053.777471570103	508.282504677124	550.018033179991	966.814239303501	727.506966124410	320.370107257144	870.763713738491	618.554461337125	248.884556111032	924.424907699080	535.298614713705	330.966070617293	911.126619336003	466.248254021089	342.822343153017	872.922493849816	397.915439481370	333.110346486633	775.492559590320	295.074640874318	273.207439815516	793.261122971733	183.779580916256	357.961246311783	1018.230668750750	420.468809522064	562.773151054537	937.747607526774	324.701419437741	628.596222250229	989.129216472156	222.920785348534	584.782560426830	861.506246525923	49.154225822083	562.656122528101	1029.175797749333	108.850165607817	604.636785244230	943.383321590725	42.674320499523	639.401836924521	1149.030105037892	65.088499829193	637.319432570739	641.447384118982	39.080623111861	387.658469701934	722.912145240176	35.091923888285	314.878507812631	805.128516197159	94.962877402088	349.927367147549	934.535384558718	39.977700837677	334.050539851289	1065.727016847249	1139.751759229604	124.889634359292	1310.836999342094	1167.130755398690	193.792104810324	658.484633737871	1117.744561747619	647.830064719318	610.645184993359	862.119244779497	668.162546231292	
